<?xml version="1.0" standalone="no"?>
<!DOCTYPE svg PUBLIC "-//W3C//DTD SVG 20010904//EN"
 "http://www.w3.org/TR/2001/REC-SVG-20010904/DTD/svg10.dtd">
<svg version="1.0" xmlns="http://www.w3.org/2000/svg"
 width="359.000000pt" height="359.000000pt" viewBox="0 0 359.000000 359.000000"
 preserveAspectRatio="xMidYMid meet">
<metadata>
Created by potrace 1.11, written by Peter Selinger 2001-2013
</metadata>
<g transform="translate(0.000000,359.000000) scale(0.100000,-0.100000)"
fill="#000000" stroke="none">
<path d="M2265 3245 c-27 -13 -90 -42 -140 -65 -49 -22 -116 -57 -150 -77 -76
-45 -171 -141 -179 -181 -6 -25 -14 -32 -53 -42 -36 -11 -48 -20 -58 -44 -8
-17 -23 -40 -35 -51 -12 -11 -43 -48 -68 -82 -39 -54 -50 -63 -77 -63 -118 0
-303 -106 -330 -188 -6 -21 -55 -59 -55 -44 0 5 9 21 20 35 29 36 25 51 -18
70 -60 26 -128 8 -186 -50 -51 -50 -66 -83 -66 -147 0 -64 44 -296 64 -337 9
-19 11 -53 5 -130 -19 -247 -9 -342 35 -326 14 5 16 24 16 124 0 158 16 322
38 410 10 40 17 75 14 78 -10 10 -40 -16 -52 -45 -18 -43 -26 -37 -33 23 -3
28 -9 63 -12 77 -18 78 -23 132 -14 163 13 49 80 107 122 107 41 0 49 -7 37
-31 -8 -13 -6 -20 6 -27 11 -6 13 -11 5 -16 -15 -10 -14 -46 2 -46 6 0 47 21
90 46 69 40 78 48 73 69 -5 18 1 28 27 47 50 37 124 69 179 75 48 6 50 5 44
-15 -12 -36 5 -89 41 -132 47 -55 197 -128 293 -143 123 -19 250 20 336 104
l40 39 24 -25 c30 -32 51 -32 90 1 28 24 36 26 85 19 58 -7 85 -29 85 -70 0
-29 -53 -136 -79 -159 -24 -22 -26 -34 -8 -50 8 -6 21 -40 31 -75 9 -36 28
-87 41 -115 38 -81 65 -155 71 -194 3 -21 8 -41 11 -45 7 -11 20 -171 33 -412
12 -207 21 -243 53 -217 11 10 13 39 9 149 -4 124 -3 136 12 130 25 -10 30 15
17 101 -6 42 -15 118 -21 167 -18 141 -29 185 -49 185 -12 0 -30 32 -64 113
-26 62 -47 117 -47 122 0 5 -10 29 -22 53 -18 39 -19 48 -8 66 46 72 70 134
70 181 0 87 -47 125 -155 128 -50 1 -68 -2 -84 -17 -17 -16 -26 -17 -44 -9
-23 11 -24 15 -19 91 3 63 1 87 -14 118 -24 50 -136 169 -191 201 -24 14 -43
28 -42 31 0 4 37 25 82 46 106 51 187 129 207 199 7 26 21 52 31 58 22 11 25
39 7 57 -15 15 -13 15 -73 -13z m-15 -84 c0 -20 -73 -101 -117 -129 -107 -68
-283 -139 -283 -114 0 28 133 126 253 187 128 65 147 72 147 56z m-330 -316
c18 16 22 16 63 -4 56 -27 116 -78 172 -148 40 -49 45 -60 45 -106 0 -55 -17
-114 -40 -142 -7 -9 -33 -30 -57 -46 -107 -74 -239 -77 -377 -11 -104 50 -143
83 -152 129 -8 44 8 99 41 138 130 154 177 197 190 174 12 -18 45 -10 45 12 0
21 1 21 26 4 24 -16 27 -16 44 0z"/>
<path d="M1829 2644 c-19 -23 14 -48 43 -33 19 10 19 12 2 30 -21 23 -28 24
-45 3z"/>
<path d="M1983 2623 c-18 -7 -16 -40 2 -47 17 -6 45 19 45 40 0 14 -23 17 -47
7z"/>
<path d="M1897 2563 c-14 -13 -6 -43 13 -53 16 -9 22 -7 27 6 4 10 2 19 -5 22
-7 2 -12 10 -12 18 0 15 -12 19 -23 7z"/>
<path d="M1716 1691 c-16 -18 -16 -21 5 -60 26 -51 57 -75 76 -59 7 6 13 18
13 27 0 9 5 22 12 29 17 17 -5 60 -38 72 -36 14 -49 13 -68 -9z"/>
<path d="M1106 1645 c-27 -27 -36 -84 -13 -86 55 -5 99 30 95 76 -4 42 -45 47
-82 10z"/>
<path d="M954 1327 c-50 -57 -50 -231 1 -330 39 -78 144 -176 238 -223 39 -20
84 -45 99 -55 45 -32 179 -95 248 -116 43 -14 90 -20 140 -19 73 1 75 2 75 26
0 24 -2 25 -99 33 -109 9 -189 39 -331 123 -38 22 -100 57 -136 77 -74 41
-163 130 -190 193 -26 58 -32 127 -17 217 13 88 5 112 -28 74z"/>
<path d="M1355 1272 c-48 -2 -64 -7 -77 -25 -29 -37 -21 -53 47 -97 l64 -42
-4 -71 c-4 -71 -4 -72 -37 -83 -36 -12 -47 -34 -25 -52 10 -8 29 -7 76 4 47
10 73 12 100 4 59 -16 148 -13 155 6 11 27 -12 42 -62 41 -26 0 -71 5 -100 12
l-53 13 2 50 c2 46 6 52 41 75 52 35 81 84 73 123 -9 41 -50 50 -200 42z"/>
</g>
</svg>
